<?xml version="1.0" encoding="UTF-8"?>
<svg width="255px" height="57px" viewBox="0 0 255 57" version="1.1" xmlns="http://www.w3.org/2000/svg" xmlns:xlink="http://www.w3.org/1999/xlink">
    <title>Group 31 Copy 3</title>
    <g id="Morehouse-Design-R3" stroke="none" stroke-width="1" fill="none" fill-rule="evenodd">
        <g id="MOREHOUSE-Additional-Modules-R3" transform="translate(-100, -1769)">
            <g id="Group-31-Copy-3" transform="translate(100, 1769)">
                <path d="M240.089255,36.8689 L254.932255,36.8689 L254.932255,31.8659 L245.151255,31.8659 L245.151255,21.0159 L252.376255,21.0159 L252.376255,16.0129 L245.151255,16.0129 L245.151255,6.7439 L254.932255,6.7439 L254.932255,1.7409 L240.089255,1.7409 L240.089255,36.8689 Z M217.598255,27.5469 C218.613255,34.1129 221.922255,37.3939 227.526255,37.3939 C228.869255,37.3939 230.090255,37.1739 231.188255,36.7359 C232.285255,36.2969 233.228255,35.6819 234.014255,34.8889 C234.800255,34.0969 235.414255,33.1569 235.857255,32.0669 C236.299255,30.9779 236.520255,29.7629 236.520255,28.4269 C236.520255,27.2319 236.331255,26.0799 235.956255,24.9709 C235.578255,23.8639 235.062255,22.8699 234.407255,21.9899 C234.145255,21.6389 233.866255,21.3049 233.571255,20.9879 C233.276255,20.6719 232.948255,20.3279 232.589255,19.9589 C232.227255,19.5909 231.802255,19.1959 231.311255,18.7729 C230.819255,18.3509 230.229255,17.8409 229.541255,17.2429 C228.657255,16.5399 227.976255,15.9859 227.501255,15.5809 C227.026255,15.1769 226.649255,14.8599 226.371255,14.6309 C226.092255,14.4029 225.879255,14.1999 225.732255,14.0249 C225.584255,13.8489 225.413255,13.6379 225.216255,13.3919 C224.298255,12.3369 223.840255,11.1589 223.840255,9.8569 C223.840255,8.8369 224.151255,7.9849 224.773255,7.2979 C225.395255,6.6129 226.182255,6.2699 227.133255,6.2699 C229.229255,6.2699 230.672255,8.0069 231.458255,11.4829 L236.324255,9.9559 C234.915255,4.1289 231.851255,1.2139 227.133255,1.2139 C225.887255,1.2139 224.741255,1.4249 223.693255,1.8469 C222.643255,2.2699 221.742255,2.8669 220.989255,3.6399 C220.235255,4.4139 219.645255,5.3289 219.220255,6.3839 C218.793255,7.4389 218.580255,8.6009 218.580255,9.8659 C218.580255,12.0809 219.187255,14.0329 220.399255,15.7219 C220.694255,16.1429 220.965255,16.5039 221.210255,16.8029 C221.456255,17.1019 221.767255,17.4359 222.145255,17.8059 C222.520255,18.1749 223.036255,18.6399 223.693255,19.2039 C224.348255,19.7659 225.248255,20.5229 226.395255,21.4719 C227.345255,22.2809 228.132255,22.9839 228.755255,23.5819 C229.377255,24.1799 229.876255,24.7429 230.253255,25.2699 C230.630255,25.7979 230.893255,26.2989 231.040255,26.7739 C231.188255,27.2479 231.261255,27.7669 231.261255,28.3299 C231.261255,29.5259 230.917255,30.4919 230.229255,31.2309 C229.541255,31.9709 228.639255,32.3389 227.526255,32.3389 C224.773255,32.3389 223.086255,30.2329 222.464255,26.0189 L217.598255,27.5469 Z M209.779255,26.4839 C209.779255,28.5929 209.499255,30.0969 208.942255,30.9939 C208.385255,31.8909 207.468255,32.3389 206.190255,32.3389 C204.879255,32.3389 203.945255,31.8909 203.389255,30.9939 C202.831255,30.0969 202.553255,28.5929 202.553255,26.4839 L202.553255,1.7409 L197.490255,1.7409 L197.490255,25.5459 C197.490255,27.7569 197.629255,29.5129 197.909255,30.8119 C198.186255,32.1109 198.670255,33.2529 199.358255,34.2349 C200.832255,36.3419 203.109255,37.3939 206.190255,37.3939 C207.665255,37.3939 208.983255,37.1219 210.146255,36.5789 C211.310255,36.0349 212.251255,35.2539 212.973255,34.2349 C213.661255,33.2529 214.144255,32.1109 214.422255,30.8119 C214.701255,29.5129 214.840255,27.7569 214.840255,25.5459 L214.840255,1.7409 L209.779255,1.7409 L209.779255,26.4839 Z M188.796255,25.6239 C188.796255,26.3279 188.788255,26.9269 188.771255,27.4209 C188.755255,27.9149 188.723255,28.3389 188.673255,28.6899 C188.624255,29.0429 188.558255,29.3519 188.476255,29.6159 C188.395255,29.8809 188.287255,30.1549 188.157255,30.4349 C187.862255,31.0349 187.428255,31.5019 186.854255,31.8369 C186.281255,32.1719 185.633255,32.3389 184.913255,32.3389 C184.191255,32.3389 183.544255,32.1719 182.972255,31.8369 C182.398255,31.5019 181.964255,31.0349 181.669255,30.4349 C181.538255,30.1549 181.432255,29.8809 181.350255,29.6159 C181.268255,29.3519 181.203255,29.0349 181.153255,28.6639 C181.105255,28.2939 181.071255,27.8709 181.055255,27.3949 C181.038255,26.9189 181.030255,26.3279 181.030255,25.6239 L181.030255,12.9859 C181.030255,11.5759 181.071255,10.5539 181.153255,9.9179 C181.235255,9.2839 181.406255,8.7019 181.669255,8.1729 C181.964255,7.5739 182.398255,7.1079 182.972255,6.7729 C183.544255,6.4379 184.191255,6.2699 184.913255,6.2699 C185.633255,6.2699 186.281255,6.4379 186.854255,6.7729 C187.428255,7.1079 187.862255,7.5739 188.157255,8.1729 C188.287255,8.4549 188.395255,8.7279 188.476255,8.9919 C188.558255,9.2579 188.624255,9.5669 188.673255,9.9179 C188.723255,10.2709 188.755255,10.6949 188.771255,11.1889 C188.788255,11.6819 188.796255,12.2809 188.796255,12.9859 L188.796255,25.6239 Z M175.968255,25.7029 C175.968255,27.7039 176.115255,29.3369 176.410255,30.6009 C176.705255,31.8659 177.180255,33.0069 177.835255,34.0239 C179.342255,36.2719 181.701255,37.3939 184.913255,37.3939 C188.124255,37.3939 190.483255,36.2719 191.991255,34.0239 C192.646255,33.0069 193.121255,31.8659 193.416255,30.6009 C193.711255,29.3369 193.858255,27.7039 193.858255,25.7029 L193.858255,12.9049 C193.858255,10.9039 193.711255,9.2719 193.416255,8.0069 C193.121255,6.7439 192.646255,5.6029 191.991255,4.5849 C190.483255,2.3379 188.124255,1.2139 184.913255,1.2139 C181.701255,1.2139 179.342255,2.3379 177.835255,4.5849 C177.180255,5.6029 176.705255,6.7439 176.410255,8.0069 C176.115255,9.2719 175.968255,10.9039 175.968255,12.9049 L175.968255,25.7029 Z M154.946255,36.8689 L160.009255,36.8689 L160.009255,21.3839 L167.234255,21.3839 L167.234255,36.8689 L172.296255,36.8689 L172.296255,1.7409 L167.234255,1.7409 L167.234255,16.3809 L160.009255,16.3809 L160.009255,1.7409 L154.946255,1.7409 L154.946255,36.8689 Z M136.584255,36.8689 L151.428255,36.8689 L151.428255,31.8659 L141.647255,31.8659 L141.647255,21.0159 L148.873255,21.0159 L148.873255,16.0129 L141.647255,16.0129 L141.647255,6.7439 L151.428255,6.7439 L151.428255,1.7409 L136.584255,1.7409 L136.584255,36.8689 Z M120.203255,17.4349 L120.203255,6.7439 L122.070255,6.7439 C123.152255,6.7439 123.980255,6.8219 124.553255,6.9809 C125.125255,7.1389 125.609255,7.4279 126.002255,7.8499 C126.821255,8.7269 127.231255,10.1329 127.231255,12.0629 C127.231255,14.0299 126.821255,15.4519 126.002255,16.3289 C125.609255,16.7509 125.125255,17.0399 124.553255,17.1979 C123.980255,17.3549 123.152255,17.4349 122.070255,17.4349 L120.203255,17.4349 Z M115.140255,36.8689 L120.203255,36.8689 L120.203255,22.4379 L123.250255,22.4379 L127.576255,36.8689 L132.884255,36.8689 L128.067255,20.9109 C131.016255,19.2959 132.490255,16.2589 132.490255,11.7989 C132.490255,8.2889 131.507255,5.6369 129.542255,3.8469 C128.755255,3.1099 127.853255,2.5739 126.838255,2.2409 C125.822255,1.9079 124.560255,1.7409 123.054255,1.7409 L115.140255,1.7409 L115.140255,36.8689 Z M106.357255,25.6239 C106.357255,26.3279 106.349255,26.9269 106.333255,27.4209 C106.316255,27.9149 106.284255,28.3389 106.235255,28.6899 C106.185255,29.0429 106.119255,29.3519 106.038255,29.6159 C105.955255,29.8809 105.849255,30.1549 105.719255,30.4349 C105.424255,31.0349 104.989255,31.5019 104.416255,31.8369 C103.843255,32.1719 103.196255,32.3389 102.475255,32.3389 C101.754255,32.3389 101.106255,32.1719 100.534255,31.8369 C99.9592552,31.5019 99.5262552,31.0349 99.2312552,30.4349 C99.1002552,30.1549 98.9922552,29.8809 98.9122552,29.6159 C98.8292552,29.3519 98.7642552,29.0349 98.7152552,28.6639 C98.6652552,28.2939 98.6322552,27.8709 98.6172552,27.3949 C98.5992552,26.9189 98.5912552,26.3279 98.5912552,25.6239 L98.5912552,12.9859 C98.5912552,11.5759 98.6322552,10.5539 98.7152552,9.9179 C98.7962552,9.2839 98.9682552,8.7019 99.2312552,8.1729 C99.5262552,7.5739 99.9592552,7.1079 100.534255,6.7729 C101.106255,6.4379 101.754255,6.2699 102.475255,6.2699 C103.196255,6.2699 103.843255,6.4379 104.416255,6.7729 C104.989255,7.1079 105.424255,7.5739 105.719255,8.1729 C105.849255,8.4549 105.955255,8.7279 106.038255,8.9919 C106.119255,9.2579 106.185255,9.5669 106.235255,9.9179 C106.284255,10.2709 106.316255,10.6949 106.333255,11.1889 C106.349255,11.6819 106.357255,12.2809 106.357255,12.9859 L106.357255,25.6239 Z M93.5302552,25.7029 C93.5302552,27.7039 93.6772552,29.3369 93.9722552,30.6009 C94.2672552,31.8659 94.7412552,33.0069 95.3972552,34.0239 C96.9042552,36.2719 99.2632552,37.3939 102.475255,37.3939 C105.686255,37.3939 108.045255,36.2719 109.552255,34.0239 C110.207255,33.0069 110.683255,31.8659 110.977255,30.6009 C111.272255,29.3369 111.420255,27.7039 111.420255,25.7029 L111.420255,12.9049 C111.420255,10.9039 111.272255,9.2719 110.977255,8.0069 C110.683255,6.7439 110.207255,5.6029 109.552255,4.5849 C108.045255,2.3379 105.686255,1.2139 102.475255,1.2139 C99.2632552,1.2139 96.9042552,2.3379 95.3972552,4.5849 C94.7412552,5.6029 94.2672552,6.7439 93.9722552,8.0069 C93.6772552,9.2719 93.5302552,10.9039 93.5302552,12.9049 L93.5302552,25.7029 Z M65.9962552,36.8689 L70.8122552,36.8689 L70.8122552,11.0099 L76.4652552,36.8689 L79.3152552,36.8689 L85.0172552,11.0099 L85.0172552,36.8689 L89.8342552,36.8689 L89.8342552,1.7409 L82.5112552,1.7409 L77.9402552,23.8079 L73.4172552,1.7409 L65.9962552,1.7409 L65.9962552,36.8689 Z" id="Fill-1" fill="#840028"></path>
                <path d="M240.089255,36.8689 L254.932255,36.8689 L254.932255,31.8659 L245.151255,31.8659 L245.151255,21.0159 L252.376255,21.0159 L252.376255,16.0129 L245.151255,16.0129 L245.151255,6.7439 L254.932255,6.7439 L254.932255,1.7409 L240.089255,1.7409 L240.089255,36.8689 Z M217.598255,27.5469 C218.613255,34.1129 221.922255,37.3939 227.526255,37.3939 C228.869255,37.3939 230.090255,37.1739 231.188255,36.7359 C232.285255,36.2969 233.228255,35.6819 234.014255,34.8889 C234.800255,34.0969 235.414255,33.1569 235.857255,32.0669 C236.299255,30.9779 236.520255,29.7629 236.520255,28.4269 C236.520255,27.2319 236.331255,26.0799 235.956255,24.9709 C235.578255,23.8639 235.062255,22.8699 234.407255,21.9899 C234.145255,21.6389 233.866255,21.3049 233.571255,20.9879 C233.276255,20.6719 232.948255,20.3279 232.589255,19.9589 C232.227255,19.5909 231.802255,19.1959 231.311255,18.7729 C230.819255,18.3509 230.229255,17.8409 229.541255,17.2429 C228.657255,16.5399 227.976255,15.9859 227.501255,15.5809 C227.026255,15.1769 226.649255,14.8599 226.371255,14.6309 C226.092255,14.4029 225.879255,14.1999 225.732255,14.0249 C225.584255,13.8489 225.413255,13.6379 225.216255,13.3919 C224.298255,12.3369 223.840255,11.1589 223.840255,9.8569 C223.840255,8.8369 224.151255,7.9849 224.773255,7.2979 C225.395255,6.6129 226.182255,6.2699 227.133255,6.2699 C229.229255,6.2699 230.672255,8.0069 231.458255,11.4829 L236.324255,9.9559 C234.915255,4.1289 231.851255,1.2139 227.133255,1.2139 C225.887255,1.2139 224.741255,1.4249 223.693255,1.8469 C222.643255,2.2699 221.742255,2.8669 220.989255,3.6399 C220.235255,4.4139 219.645255,5.3289 219.220255,6.3839 C218.793255,7.4389 218.580255,8.6009 218.580255,9.8659 C218.580255,12.0809 219.187255,14.0329 220.399255,15.7219 C220.694255,16.1429 220.965255,16.5039 221.210255,16.8029 C221.456255,17.1019 221.767255,17.4359 222.145255,17.8059 C222.520255,18.1749 223.036255,18.6399 223.693255,19.2039 C224.348255,19.7659 225.248255,20.5229 226.395255,21.4719 C227.345255,22.2809 228.132255,22.9839 228.755255,23.5819 C229.377255,24.1799 229.876255,24.7429 230.253255,25.2699 C230.630255,25.7979 230.893255,26.2989 231.040255,26.7739 C231.188255,27.2479 231.261255,27.7669 231.261255,28.3299 C231.261255,29.5259 230.917255,30.4919 230.229255,31.2309 C229.541255,31.9709 228.639255,32.3389 227.526255,32.3389 C224.773255,32.3389 223.086255,30.2329 222.464255,26.0189 L217.598255,27.5469 Z M209.779255,26.4839 C209.779255,28.5929 209.499255,30.0969 208.942255,30.9939 C208.385255,31.8909 207.468255,32.3389 206.190255,32.3389 C204.879255,32.3389 203.945255,31.8909 203.389255,30.9939 C202.831255,30.0969 202.553255,28.5929 202.553255,26.4839 L202.553255,1.7409 L197.490255,1.7409 L197.490255,25.5459 C197.490255,27.7569 197.629255,29.5129 197.909255,30.8119 C198.186255,32.1109 198.670255,33.2529 199.358255,34.2349 C200.832255,36.3419 203.109255,37.3939 206.190255,37.3939 C207.665255,37.3939 208.983255,37.1219 210.146255,36.5789 C211.310255,36.0349 212.251255,35.2539 212.973255,34.2349 C213.661255,33.2529 214.144255,32.1109 214.422255,30.8119 C214.701255,29.5129 214.840255,27.7569 214.840255,25.5459 L214.840255,1.7409 L209.779255,1.7409 L209.779255,26.4839 Z M188.796255,25.6239 C188.796255,26.3279 188.788255,26.9269 188.771255,27.4209 C188.755255,27.9149 188.723255,28.3389 188.673255,28.6899 C188.624255,29.0429 188.558255,29.3519 188.476255,29.6159 C188.395255,29.8809 188.287255,30.1549 188.157255,30.4349 C187.862255,31.0349 187.428255,31.5019 186.854255,31.8369 C186.281255,32.1719 185.633255,32.3389 184.913255,32.3389 C184.191255,32.3389 183.544255,32.1719 182.972255,31.8369 C182.398255,31.5019 181.964255,31.0349 181.669255,30.4349 C181.538255,30.1549 181.432255,29.8809 181.350255,29.6159 C181.268255,29.3519 181.203255,29.0349 181.153255,28.6639 C181.105255,28.2939 181.071255,27.8709 181.055255,27.3949 C181.038255,26.9189 181.030255,26.3279 181.030255,25.6239 L181.030255,12.9859 C181.030255,11.5759 181.071255,10.5539 181.153255,9.9179 C181.235255,9.2839 181.406255,8.7019 181.669255,8.1729 C181.964255,7.5739 182.398255,7.1079 182.972255,6.7729 C183.544255,6.4379 184.191255,6.2699 184.913255,6.2699 C185.633255,6.2699 186.281255,6.4379 186.854255,6.7729 C187.428255,7.1079 187.862255,7.5739 188.157255,8.1729 C188.287255,8.4549 188.395255,8.7279 188.476255,8.9919 C188.558255,9.2579 188.624255,9.5669 188.673255,9.9179 C188.723255,10.2709 188.755255,10.6949 188.771255,11.1889 C188.788255,11.6819 188.796255,12.2809 188.796255,12.9859 L188.796255,25.6239 Z M175.968255,25.7029 C175.968255,27.7039 176.115255,29.3369 176.410255,30.6009 C176.705255,31.8659 177.180255,33.0069 177.835255,34.0239 C179.342255,36.2719 181.701255,37.3939 184.913255,37.3939 C188.124255,37.3939 190.483255,36.2719 191.991255,34.0239 C192.646255,33.0069 193.121255,31.8659 193.416255,30.6009 C193.711255,29.3369 193.858255,27.7039 193.858255,25.7029 L193.858255,12.9049 C193.858255,10.9039 193.711255,9.2719 193.416255,8.0069 C193.121255,6.7439 192.646255,5.6029 191.991255,4.5849 C190.483255,2.3379 188.124255,1.2139 184.913255,1.2139 C181.701255,1.2139 179.342255,2.3379 177.835255,4.5849 C177.180255,5.6029 176.705255,6.7439 176.410255,8.0069 C176.115255,9.2719 175.968255,10.9039 175.968255,12.9049 L175.968255,25.7029 Z M154.946255,36.8689 L160.009255,36.8689 L160.009255,21.3839 L167.234255,21.3839 L167.234255,36.8689 L172.296255,36.8689 L172.296255,1.7409 L167.234255,1.7409 L167.234255,16.3809 L160.009255,16.3809 L160.009255,1.7409 L154.946255,1.7409 L154.946255,36.8689 Z M136.584255,36.8689 L151.428255,36.8689 L151.428255,31.8659 L141.647255,31.8659 L141.647255,21.0159 L148.873255,21.0159 L148.873255,16.0129 L141.647255,16.0129 L141.647255,6.7439 L151.428255,6.7439 L151.428255,1.7409 L136.584255,1.7409 L136.584255,36.8689 Z M120.203255,17.4349 L120.203255,6.7439 L122.070255,6.7439 C123.152255,6.7439 123.980255,6.8219 124.553255,6.9809 C125.125255,7.1389 125.609255,7.4279 126.002255,7.8499 C126.821255,8.7269 127.231255,10.1329 127.231255,12.0629 C127.231255,14.0299 126.821255,15.4519 126.002255,16.3289 C125.609255,16.7509 125.125255,17.0399 124.553255,17.1979 C123.980255,17.3549 123.152255,17.4349 122.070255,17.4349 L120.203255,17.4349 Z M115.140255,36.8689 L120.203255,36.8689 L120.203255,22.4379 L123.250255,22.4379 L127.576255,36.8689 L132.884255,36.8689 L128.067255,20.9109 C131.016255,19.2959 132.490255,16.2589 132.490255,11.7989 C132.490255,8.2889 131.507255,5.6369 129.542255,3.8469 C128.755255,3.1099 127.853255,2.5739 126.838255,2.2409 C125.822255,1.9079 124.560255,1.7409 123.054255,1.7409 L115.140255,1.7409 L115.140255,36.8689 Z M106.357255,25.6239 C106.357255,26.3279 106.349255,26.9269 106.333255,27.4209 C106.316255,27.9149 106.284255,28.3389 106.235255,28.6899 C106.185255,29.0429 106.119255,29.3519 106.038255,29.6159 C105.955255,29.8809 105.849255,30.1549 105.719255,30.4349 C105.424255,31.0349 104.989255,31.5019 104.416255,31.8369 C103.843255,32.1719 103.196255,32.3389 102.475255,32.3389 C101.754255,32.3389 101.106255,32.1719 100.534255,31.8369 C99.9592552,31.5019 99.5262552,31.0349 99.2312552,30.4349 C99.1002552,30.1549 98.9922552,29.8809 98.9122552,29.6159 C98.8292552,29.3519 98.7642552,29.0349 98.7152552,28.6639 C98.6652552,28.2939 98.6322552,27.8709 98.6172552,27.3949 C98.5992552,26.9189 98.5912552,26.3279 98.5912552,25.6239 L98.5912552,12.9859 C98.5912552,11.5759 98.6322552,10.5539 98.7152552,9.9179 C98.7962552,9.2839 98.9682552,8.7019 99.2312552,8.1729 C99.5262552,7.5739 99.9592552,7.1079 100.534255,6.7729 C101.106255,6.4379 101.754255,6.2699 102.475255,6.2699 C103.196255,6.2699 103.843255,6.4379 104.416255,6.7729 C104.989255,7.1079 105.424255,7.5739 105.719255,8.1729 C105.849255,8.4549 105.955255,8.7279 106.038255,8.9919 C106.119255,9.2579 106.185255,9.5669 106.235255,9.9179 C106.284255,10.2709 106.316255,10.6949 106.333255,11.1889 C106.349255,11.6819 106.357255,12.2809 106.357255,12.9859 L106.357255,25.6239 Z M93.5302552,25.7029 C93.5302552,27.7039 93.6772552,29.3369 93.9722552,30.6009 C94.2672552,31.8659 94.7412552,33.0069 95.3972552,34.0239 C96.9042552,36.2719 99.2632552,37.3939 102.475255,37.3939 C105.686255,37.3939 108.045255,36.2719 109.552255,34.0239 C110.207255,33.0069 110.683255,31.8659 110.977255,30.6009 C111.272255,29.3369 111.420255,27.7039 111.420255,25.7029 L111.420255,12.9049 C111.420255,10.9039 111.272255,9.2719 110.977255,8.0069 C110.683255,6.7439 110.207255,5.6029 109.552255,4.5849 C108.045255,2.3379 105.686255,1.2139 102.475255,1.2139 C99.2632552,1.2139 96.9042552,2.3379 95.3972552,4.5849 C94.7412552,5.6029 94.2672552,6.7439 93.9722552,8.0069 C93.6772552,9.2719 93.5302552,10.9039 93.5302552,12.9049 L93.5302552,25.7029 Z M65.9962552,36.8689 L70.8122552,36.8689 L70.8122552,11.0099 L76.4652552,36.8689 L79.3152552,36.8689 L85.0172552,11.0099 L85.0172552,36.8689 L89.8342552,36.8689 L89.8342552,1.7409 L82.5112552,1.7409 L77.9402552,23.8079 L73.4172552,1.7409 L65.9962552,1.7409 L65.9962552,36.8689 Z" id="Stroke-3" fill="#840028"></path>
                <path d="M111.138555,55.5684 L116.509555,55.5684 L116.509555,53.7584 L112.970555,53.7584 L112.970555,49.8324 L115.584555,49.8324 L115.584555,48.0224 L112.970555,48.0224 L112.970555,44.6694 L116.509555,44.6694 L116.509555,42.8594 L111.138555,42.8594 L111.138555,55.5684 Z M108.404555,55.5684 L109.346555,55.5684 L109.346555,49.2604 L106.003555,49.2604 L106.003555,50.8814 L107.514555,50.8814 L107.514555,51.3984 C107.514555,52.2934 107.407555,52.9394 107.194555,53.3354 C106.980555,53.7324 106.631555,53.9304 106.145555,53.9304 C105.848555,53.9304 105.590555,53.8434 105.372555,53.6724 C105.152555,53.4994 104.995555,53.2674 104.900555,52.9734 C104.829555,52.7304 104.778555,52.4564 104.749555,52.1504 C104.719555,51.8444 104.704555,51.4234 104.704555,50.8874 L104.704555,46.9854 C104.704555,46.7164 104.706555,46.4904 104.713555,46.3054 C104.719555,46.1214 104.734555,45.9614 104.758555,45.8274 C104.782555,45.6934 104.808555,45.5714 104.838555,45.4644 C104.867555,45.3554 104.912555,45.2494 104.971555,45.1474 C105.066555,44.9314 105.211555,44.7694 105.407555,44.6604 C105.602555,44.5514 105.818555,44.4974 106.056555,44.4974 C106.554555,44.4974 106.912555,44.6904 107.132555,45.0794 C107.351555,45.4664 107.461555,46.0984 107.461555,46.9744 L109.293555,46.9744 C109.293555,46.3914 109.263555,45.8984 109.203555,45.4984 C109.144555,45.0984 109.043555,44.7454 108.901555,44.4404 C108.652555,43.8634 108.287555,43.4224 107.808555,43.1214 C107.327555,42.8194 106.749555,42.6684 106.073555,42.6684 C105.529555,42.6684 105.039555,42.7704 104.606555,42.9734 C104.174555,43.1764 103.827555,43.4694 103.566555,43.8494 C103.424555,44.0394 103.309555,44.2374 103.219555,44.4394 C103.131555,44.6434 103.059555,44.8784 103.006555,45.1454 C102.953555,45.4114 102.917555,45.7234 102.899555,46.0794 C102.881555,46.4344 102.872555,46.8664 102.872555,47.3744 L102.872555,50.8814 C102.872555,51.3254 102.881555,51.7124 102.899555,52.0434 C102.917555,52.3744 102.946555,52.6694 102.988555,52.9294 C103.029555,53.1904 103.084555,53.4284 103.149555,53.6434 C103.213555,53.8604 103.293555,54.0704 103.388555,54.2734 C103.625555,54.7434 103.958555,55.1084 104.384555,55.3684 C104.811555,55.6294 105.297555,55.7594 105.842555,55.7594 C106.329555,55.7594 106.743555,55.6614 107.088555,55.4634 C107.431555,55.2674 107.757555,54.9394 108.065555,54.4834 L108.404555,55.5684 Z M96.0925552,55.5684 L101.462555,55.5684 L101.462555,53.7584 L97.9245552,53.7584 L97.9245552,49.8324 L100.538555,49.8324 L100.538555,48.0224 L97.9245552,48.0224 L97.9245552,44.6694 L101.462555,44.6694 L101.462555,42.8594 L96.0925552,42.8594 L96.0925552,55.5684 Z M89.1065552,55.5684 L94.5855552,55.5684 L94.5855552,53.7584 L90.9385552,53.7584 L90.9385552,42.8594 L89.1065552,42.8594 L89.1065552,55.5684 Z M82.1215552,55.5684 L87.6005552,55.5684 L87.6005552,53.7584 L83.9535552,53.7584 L83.9535552,42.8594 L82.1215552,42.8594 L82.1215552,55.5684 Z M78.4625552,51.4994 C78.4625552,51.7554 78.4595552,51.9714 78.4535552,52.1504 C78.4475552,52.3294 78.4365552,52.4824 78.4185552,52.6104 C78.4005552,52.7374 78.3765552,52.8494 78.3465552,52.9454 C78.3165552,53.0414 78.2785552,53.1394 78.2315552,53.2414 C78.1245552,53.4574 77.9675552,53.6274 77.7595552,53.7484 C77.5525552,53.8694 77.3175552,53.9304 77.0575552,53.9304 C76.7965552,53.9304 76.5625552,53.8694 76.3555552,53.7484 C76.1475552,53.6274 75.9905552,53.4574 75.8835552,53.2414 C75.8365552,53.1394 75.7975552,53.0414 75.7685552,52.9454 C75.7385552,52.8494 75.7145552,52.7344 75.6975552,52.6004 C75.6795552,52.4654 75.6675552,52.3124 75.6615552,52.1414 C75.6555552,51.9694 75.6525552,51.7554 75.6525552,51.4994 L75.6525552,46.9274 C75.6525552,46.4164 75.6675552,46.0474 75.6975552,45.8174 C75.7265552,45.5884 75.7885552,45.3774 75.8835552,45.1854 C75.9905552,44.9694 76.1475552,44.8014 76.3555552,44.6794 C76.5625552,44.5584 76.7965552,44.4974 77.0575552,44.4974 C77.3175552,44.4974 77.5525552,44.5584 77.7595552,44.6794 C77.9675552,44.8014 78.1245552,44.9694 78.2315552,45.1854 C78.2785552,45.2884 78.3165552,45.3874 78.3465552,45.4824 C78.3765552,45.5784 78.4005552,45.6904 78.4185552,45.8174 C78.4365552,45.9454 78.4475552,46.0984 78.4535552,46.2774 C78.4595552,46.4564 78.4625552,46.6724 78.4625552,46.9274 L78.4625552,51.4994 Z M73.8205552,51.5294 C73.8205552,52.2524 73.8745552,52.8434 73.9815552,53.3014 C74.0885552,53.7584 74.2595552,54.1714 74.4975552,54.5394 C75.0415552,55.3534 75.8955552,55.7594 77.0575552,55.7594 C78.2195552,55.7594 79.0725552,55.3534 79.6185552,54.5394 C79.8555552,54.1714 80.0275552,53.7584 80.1345552,53.3014 C80.2405552,52.8434 80.2945552,52.2524 80.2945552,51.5294 L80.2945552,46.8984 C80.2945552,46.1744 80.2405552,45.5834 80.1345552,45.1264 C80.0275552,44.6694 79.8555552,44.2564 79.6185552,43.8884 C79.0725552,43.0744 78.2195552,42.6684 77.0575552,42.6684 C75.8955552,42.6684 75.0415552,43.0744 74.4975552,43.8884 C74.2595552,44.2564 74.0885552,44.6694 73.9815552,45.1264 C73.8745552,45.5834 73.8205552,46.1744 73.8205552,46.8984 L73.8205552,51.5294 Z M70.3215552,51.1294 C70.3095552,51.5744 70.2975552,51.8934 70.2865552,52.0914 C70.2745552,52.2884 70.2495552,52.4624 70.2145552,52.6144 C70.0365552,53.4924 69.5985552,53.9304 68.8985552,53.9304 C68.6255552,53.9304 68.3865552,53.8564 68.1785552,53.7094 C67.9715552,53.5634 67.8205552,53.3614 67.7255552,53.1074 C67.6545552,52.8904 67.6035552,52.6414 67.5735552,52.3614 C67.5435552,52.0814 67.5295552,51.6974 67.5295552,51.2134 L67.5295552,46.9654 C67.5295552,46.7104 67.5315552,46.4904 67.5385552,46.3054 C67.5435552,46.1214 67.5595552,45.9584 67.5825552,45.8174 C67.6075552,45.6774 67.6355552,45.5524 67.6725552,45.4444 C67.7075552,45.3364 67.7555552,45.2304 67.8135552,45.1284 C68.0155552,44.7084 68.3775552,44.4974 68.8985552,44.4974 C69.8235552,44.4974 70.2865552,45.2344 70.2865552,46.7084 L70.2865552,46.9744 L72.1175552,46.9744 L72.1175552,46.5934 C72.1175552,45.3364 71.8355552,44.3674 71.2735552,43.6884 C70.7095552,43.0084 69.9185552,42.6684 68.8985552,42.6684 C68.3415552,42.6684 67.8505552,42.7704 67.4225552,42.9734 C66.9965552,43.1764 66.6525552,43.4694 66.3915552,43.8494 C66.2495552,44.0524 66.1335552,44.2564 66.0445552,44.4594 C65.9565552,44.6624 65.8845552,44.8944 65.8315552,45.1544 C65.7785552,45.4154 65.7415552,45.7234 65.7245552,46.0794 C65.7065552,46.4344 65.6975552,46.8664 65.6975552,47.3744 L65.6975552,50.9384 C65.6975552,51.4084 65.7065552,51.8144 65.7245552,52.1574 C65.7415552,52.5014 65.7715552,52.8034 65.8135552,53.0624 C65.8545552,53.3234 65.9145552,53.5544 65.9915552,53.7584 C66.0675552,53.9624 66.1605552,54.1584 66.2665552,54.3494 C66.5275552,54.8064 66.8835552,55.1554 67.3345552,55.3964 C67.7845552,55.6384 68.3115552,55.7594 68.9165552,55.7594 C69.9955552,55.7594 70.8075552,55.4064 71.3525552,54.7024 C71.8985552,53.9964 72.1715552,52.9524 72.1715552,51.5674 L72.1715552,51.1294 L70.3215552,51.1294 Z" id="Fill-5" fill="#840028"></path>
                <path d="M111.138555,55.5684 L116.509555,55.5684 L116.509555,53.7584 L112.970555,53.7584 L112.970555,49.8324 L115.584555,49.8324 L115.584555,48.0224 L112.970555,48.0224 L112.970555,44.6694 L116.509555,44.6694 L116.509555,42.8594 L111.138555,42.8594 L111.138555,55.5684 Z M108.404555,55.5684 L109.346555,55.5684 L109.346555,49.2604 L106.003555,49.2604 L106.003555,50.8814 L107.514555,50.8814 L107.514555,51.3984 C107.514555,52.2934 107.407555,52.9394 107.194555,53.3354 C106.980555,53.7324 106.631555,53.9304 106.145555,53.9304 C105.848555,53.9304 105.590555,53.8434 105.372555,53.6724 C105.152555,53.4994 104.995555,53.2674 104.900555,52.9734 C104.829555,52.7304 104.778555,52.4564 104.749555,52.1504 C104.719555,51.8444 104.704555,51.4234 104.704555,50.8874 L104.704555,46.9854 C104.704555,46.7164 104.706555,46.4904 104.713555,46.3054 C104.719555,46.1214 104.734555,45.9614 104.758555,45.8274 C104.782555,45.6934 104.808555,45.5714 104.838555,45.4644 C104.867555,45.3554 104.912555,45.2494 104.971555,45.1474 C105.066555,44.9314 105.211555,44.7694 105.407555,44.6604 C105.602555,44.5514 105.818555,44.4974 106.056555,44.4974 C106.554555,44.4974 106.912555,44.6904 107.132555,45.0794 C107.351555,45.4664 107.461555,46.0984 107.461555,46.9744 L109.293555,46.9744 C109.293555,46.3914 109.263555,45.8984 109.203555,45.4984 C109.144555,45.0984 109.043555,44.7454 108.901555,44.4404 C108.652555,43.8634 108.287555,43.4224 107.808555,43.1214 C107.327555,42.8194 106.749555,42.6684 106.073555,42.6684 C105.529555,42.6684 105.039555,42.7704 104.606555,42.9734 C104.174555,43.1764 103.827555,43.4694 103.566555,43.8494 C103.424555,44.0394 103.309555,44.2374 103.219555,44.4394 C103.131555,44.6434 103.059555,44.8784 103.006555,45.1454 C102.953555,45.4114 102.917555,45.7234 102.899555,46.0794 C102.881555,46.4344 102.872555,46.8664 102.872555,47.3744 L102.872555,50.8814 C102.872555,51.3254 102.881555,51.7124 102.899555,52.0434 C102.917555,52.3744 102.946555,52.6694 102.988555,52.9294 C103.029555,53.1904 103.084555,53.4284 103.149555,53.6434 C103.213555,53.8604 103.293555,54.0704 103.388555,54.2734 C103.625555,54.7434 103.958555,55.1084 104.384555,55.3684 C104.811555,55.6294 105.297555,55.7594 105.842555,55.7594 C106.329555,55.7594 106.743555,55.6614 107.088555,55.4634 C107.431555,55.2674 107.757555,54.9394 108.065555,54.4834 L108.404555,55.5684 Z M96.0925552,55.5684 L101.462555,55.5684 L101.462555,53.7584 L97.9245552,53.7584 L97.9245552,49.8324 L100.538555,49.8324 L100.538555,48.0224 L97.9245552,48.0224 L97.9245552,44.6694 L101.462555,44.6694 L101.462555,42.8594 L96.0925552,42.8594 L96.0925552,55.5684 Z M89.1065552,55.5684 L94.5855552,55.5684 L94.5855552,53.7584 L90.9385552,53.7584 L90.9385552,42.8594 L89.1065552,42.8594 L89.1065552,55.5684 Z M82.1215552,55.5684 L87.6005552,55.5684 L87.6005552,53.7584 L83.9535552,53.7584 L83.9535552,42.8594 L82.1215552,42.8594 L82.1215552,55.5684 Z M78.4625552,51.4994 C78.4625552,51.7554 78.4595552,51.9714 78.4535552,52.1504 C78.4475552,52.3294 78.4365552,52.4824 78.4185552,52.6104 C78.4005552,52.7374 78.3765552,52.8494 78.3465552,52.9454 C78.3165552,53.0414 78.2785552,53.1394 78.2315552,53.2414 C78.1245552,53.4574 77.9675552,53.6274 77.7595552,53.7484 C77.5525552,53.8694 77.3175552,53.9304 77.0575552,53.9304 C76.7965552,53.9304 76.5625552,53.8694 76.3555552,53.7484 C76.1475552,53.6274 75.9905552,53.4574 75.8835552,53.2414 C75.8365552,53.1394 75.7975552,53.0414 75.7685552,52.9454 C75.7385552,52.8494 75.7145552,52.7344 75.6975552,52.6004 C75.6795552,52.4654 75.6675552,52.3124 75.6615552,52.1414 C75.6555552,51.9694 75.6525552,51.7554 75.6525552,51.4994 L75.6525552,46.9274 C75.6525552,46.4164 75.6675552,46.0474 75.6975552,45.8174 C75.7265552,45.5884 75.7885552,45.3774 75.8835552,45.1854 C75.9905552,44.9694 76.1475552,44.8014 76.3555552,44.6794 C76.5625552,44.5584 76.7965552,44.4974 77.0575552,44.4974 C77.3175552,44.4974 77.5525552,44.5584 77.7595552,44.6794 C77.9675552,44.8014 78.1245552,44.9694 78.2315552,45.1854 C78.2785552,45.2884 78.3165552,45.3874 78.3465552,45.4824 C78.3765552,45.5784 78.4005552,45.6904 78.4185552,45.8174 C78.4365552,45.9454 78.4475552,46.0984 78.4535552,46.2774 C78.4595552,46.4564 78.4625552,46.6724 78.4625552,46.9274 L78.4625552,51.4994 Z M73.8205552,51.5294 C73.8205552,52.2524 73.8745552,52.8434 73.9815552,53.3014 C74.0885552,53.7584 74.2595552,54.1714 74.4975552,54.5394 C75.0415552,55.3534 75.8955552,55.7594 77.0575552,55.7594 C78.2195552,55.7594 79.0725552,55.3534 79.6185552,54.5394 C79.8555552,54.1714 80.0275552,53.7584 80.1345552,53.3014 C80.2405552,52.8434 80.2945552,52.2524 80.2945552,51.5294 L80.2945552,46.8984 C80.2945552,46.1744 80.2405552,45.5834 80.1345552,45.1264 C80.0275552,44.6694 79.8555552,44.2564 79.6185552,43.8884 C79.0725552,43.0744 78.2195552,42.6684 77.0575552,42.6684 C75.8955552,42.6684 75.0415552,43.0744 74.4975552,43.8884 C74.2595552,44.2564 74.0885552,44.6694 73.9815552,45.1264 C73.8745552,45.5834 73.8205552,46.1744 73.8205552,46.8984 L73.8205552,51.5294 Z M70.3215552,51.1294 C70.3095552,51.5744 70.2975552,51.8934 70.2865552,52.0914 C70.2745552,52.2884 70.2495552,52.4624 70.2145552,52.6144 C70.0365552,53.4924 69.5985552,53.9304 68.8985552,53.9304 C68.6255552,53.9304 68.3865552,53.8564 68.1785552,53.7094 C67.9715552,53.5634 67.8205552,53.3614 67.7255552,53.1074 C67.6545552,52.8904 67.6035552,52.6414 67.5735552,52.3614 C67.5435552,52.0814 67.5295552,51.6974 67.5295552,51.2134 L67.5295552,46.9654 C67.5295552,46.7104 67.5315552,46.4904 67.5385552,46.3054 C67.5435552,46.1214 67.5595552,45.9584 67.5825552,45.8174 C67.6075552,45.6774 67.6355552,45.5524 67.6725552,45.4444 C67.7075552,45.3364 67.7555552,45.2304 67.8135552,45.1284 C68.0155552,44.7084 68.3775552,44.4974 68.8985552,44.4974 C69.8235552,44.4974 70.2865552,45.2344 70.2865552,46.7084 L70.2865552,46.9744 L72.1175552,46.9744 L72.1175552,46.5934 C72.1175552,45.3364 71.8355552,44.3674 71.2735552,43.6884 C70.7095552,43.0084 69.9185552,42.6684 68.8985552,42.6684 C68.3415552,42.6684 67.8505552,42.7704 67.4225552,42.9734 C66.9965552,43.1764 66.6525552,43.4694 66.3915552,43.8494 C66.2495552,44.0524 66.1335552,44.2564 66.0445552,44.4594 C65.9565552,44.6624 65.8845552,44.8944 65.8315552,45.1544 C65.7785552,45.4154 65.7415552,45.7234 65.7245552,46.0794 C65.7065552,46.4344 65.6975552,46.8664 65.6975552,47.3744 L65.6975552,50.9384 C65.6975552,51.4084 65.7065552,51.8144 65.7245552,52.1574 C65.7415552,52.5014 65.7715552,52.8034 65.8135552,53.0624 C65.8545552,53.3234 65.9145552,53.5544 65.9915552,53.7584 C66.0675552,53.9624 66.1605552,54.1584 66.2665552,54.3494 C66.5275552,54.8064 66.8835552,55.1554 67.3345552,55.3964 C67.7845552,55.6384 68.3115552,55.7594 68.9165552,55.7594 C69.9955552,55.7594 70.8075552,55.4064 71.3525552,54.7024 C71.8985552,53.9964 72.1715552,52.9524 72.1715552,51.5674 L72.1715552,51.1294 L70.3215552,51.1294 Z" id="Stroke-7" fill="#840028"></path>
                <path d="M18.6180552,42.3631 C18.6180552,42.1581 18.6220552,42.0681 18.6170552,41.9781 C18.6090552,41.7951 18.5640552,41.7511 18.3890552,41.7721 C18.1750552,41.7971 17.9610552,41.8351 17.7470552,41.8661 C16.3910552,42.0621 15.0350552,42.2551 13.6790552,42.4521 C12.2700552,42.6571 10.8610552,42.8641 9.45105518,43.0701 C8.91605518,43.1481 8.38105518,43.2231 7.84505518,43.3011 C7.70005518,43.3231 7.66505518,43.4001 7.75305518,43.5201 C7.86905518,43.6811 8.00305518,43.8301 8.11205518,43.9951 C8.25905518,44.2181 8.44505518,44.2781 8.70905518,44.2381 C10.2060552,44.0111 11.7050552,43.7981 13.2030552,43.5781 C14.8270552,43.3401 16.4480552,43.0901 18.0730552,42.8641 C18.6950552,42.7781 18.6120552,42.7931 18.6180552,42.3631 L18.6180552,42.3631 Z M8.80105518,41.5731 C10.2490552,41.6231 11.9500552,40.4461 12.1750552,38.6121 C12.2980552,37.6091 11.8090552,36.4151 10.5140552,36.0071 C9.85405518,35.7991 9.18705518,35.8251 8.55005518,36.0831 C7.25905518,36.6051 6.44605518,37.5301 6.31805518,38.9511 C6.23705518,39.8621 6.58005518,40.6151 7.34405518,41.1471 C7.78705518,41.4551 8.28705518,41.5891 8.80105518,41.5731 L8.80105518,41.5731 Z M51.3630552,32.9941 C51.4030552,32.0161 50.7750552,30.8751 49.4260552,30.4981 C47.7860552,30.0401 45.9320552,30.9921 45.3260552,32.5881 C45.1220552,33.1261 45.0830552,33.6771 45.2150552,34.2341 C45.4610552,35.2781 46.3770552,36.1621 47.7480552,36.2221 C49.0310552,36.2781 50.0590552,35.7481 50.8130552,34.7131 C51.1840552,34.2051 51.3800552,33.6301 51.3630552,32.9941 L51.3630552,32.9941 Z M38.3860552,39.9101 C38.7440552,39.8611 39.0990552,39.8141 39.4530552,39.7641 C40.5940552,39.6001 41.7360552,39.4351 42.8780552,39.2711 C43.9840552,39.1121 45.0900552,38.9541 46.1960552,38.7951 C47.3550552,38.6281 48.5150552,38.4601 49.6740552,38.2931 C50.4410552,38.1821 51.2080552,38.0701 51.9750552,37.9651 C52.1200552,37.9451 52.2030552,37.8741 52.2520552,37.7461 C52.2770552,37.6791 52.3150552,37.6151 52.3350552,37.5461 C52.3970552,37.3311 52.5850552,37.1491 52.5030552,36.8971 C52.2870552,36.8311 52.0760552,36.8971 51.8650552,36.9271 C50.9550552,37.0551 50.0460552,37.1921 49.1360552,37.3211 C48.0480552,37.4751 46.9580552,37.6211 45.8700552,37.7781 C44.9790552,37.9061 44.0890552,38.0501 43.1980552,38.1791 C41.8240552,38.3781 40.4490552,38.5621 39.0770552,38.7741 C38.8370552,38.8111 38.5100552,38.7281 38.3690552,38.9441 C38.2270552,39.1631 38.3260552,39.4711 38.3270552,39.7401 C38.3270552,39.7891 38.3600552,39.8381 38.3860552,39.9101 L38.3860552,39.9101 Z M34.9780552,22.8361 C34.8960552,22.7731 34.8580552,22.7321 34.8120552,22.7091 C32.5320552,21.5971 30.1440552,21.2681 27.6540552,21.7541 C25.4930552,22.1781 23.5600552,23.1141 21.8050552,24.4301 C21.6630552,24.5371 21.4990552,24.6251 21.4090552,24.8001 C21.5260552,24.9881 21.7170552,25.0981 21.8790552,25.2371 C22.1700552,25.4871 22.1750552,25.4861 22.4650552,25.2701 C22.9580552,24.9041 23.4730552,24.5721 24.0080552,24.2721 C25.4670552,23.4531 27.0040552,22.8641 28.6750552,22.6501 C30.3240552,22.4391 31.9070552,22.6501 33.4320552,23.3191 C33.6910552,23.4331 33.9150552,23.6341 34.2170552,23.6481 C34.4170552,23.4421 34.6180552,23.2371 34.8170552,23.0301 C34.8670552,22.9791 34.9090552,22.9201 34.9780552,22.8361 L34.9780552,22.8361 Z M34.0240552,27.5421 C34.0240552,26.7301 34.0140552,25.9181 34.0300552,25.1061 C34.0350552,24.8371 33.9550552,24.6571 33.7050552,24.5571 C33.6550552,24.5371 33.6080552,24.5101 33.5600552,24.4851 C31.7180552,23.5221 29.7840552,23.3581 27.7800552,23.8271 C26.0150552,24.2401 24.4400552,25.0541 22.9820552,26.1171 C22.7160552,26.3101 22.6330552,26.5251 22.6359772,26.8411 C22.6490552,28.3201 22.6420552,29.7991 22.6420552,31.2791 C22.6420552,32.1021 22.5880552,31.9491 23.3450552,31.8851 C23.3810552,31.8821 23.4160552,31.8761 23.4520552,31.8711 C25.0570552,31.6331 26.6610552,31.3941 28.2660552,31.1601 C30.0850552,30.8951 31.9050552,30.6371 33.7250552,30.3761 C33.9940552,30.3371 34.0210552,30.3131 34.0220552,30.0311 C34.0260552,29.2021 34.0240552,28.3711 34.0240552,27.5421 L34.0240552,27.5421 Z M39.4190552,51.1931 C39.7520552,51.1381 39.9940552,50.9861 40.2340552,50.8361 C40.2690552,50.8141 40.2870552,50.7431 40.2900552,50.6931 C40.2990552,50.5491 40.2980552,50.4041 40.2980552,50.2601 L40.2980552,44.1901 C40.2980552,44.0641 40.2950552,43.9371 40.3000552,43.8111 C40.3090552,43.5711 40.3360552,43.5421 40.5820552,43.5061 C41.7960552,43.3291 43.0100552,43.1521 44.2250552,42.9761 C46.0110552,42.7181 47.7970552,42.4551 49.5860552,42.2131 C49.8350552,42.1801 49.9760552,42.0731 50.0920552,41.8751 C50.3500552,41.4411 50.6180552,41.0121 50.8760552,40.5771 C50.9290552,40.4871 51.0040552,40.3981 50.9760552,40.2611 C50.8910552,40.2611 50.8020552,40.2511 50.7150552,40.2631 C49.4110552,40.4491 48.1070552,40.6371 46.8030552,40.8251 C45.3920552,41.0301 43.9810552,41.2351 42.5700552,41.4411 C41.4440552,41.6051 40.3200552,41.7701 39.1950552,41.9331 C37.8370552,42.1301 36.4790552,42.3261 35.1220552,42.5221 C34.0140552,42.6811 32.9060552,42.8391 31.7990552,43.0001 C30.4230552,43.1991 29.0480552,43.4011 27.6730552,43.6031 C26.5300552,43.7701 25.3880552,43.9371 24.2440552,44.1031 C23.1370552,44.2641 22.0290552,44.4221 20.9210552,44.5821 C19.7960552,44.7461 18.6710552,44.9121 17.5460552,45.0751 C16.1890552,45.2731 14.8310552,45.4691 13.4730552,45.6651 C12.4200552,45.8181 11.3650552,45.9681 10.3110552,46.1211 C10.2600552,46.1281 10.191021,46.1331 10.191021,46.2011 C10.1900552,46.2471 10.2110552,46.3081 10.2440552,46.3391 C10.6790552,46.7461 11.1210552,47.1461 11.5560552,47.5531 C11.6900552,47.6781 11.8320552,47.6821 12.0050552,47.6561 C13.2370552,47.4701 14.4700552,47.2941 15.7020552,47.1161 C16.0060552,47.0721 16.3090552,47.0241 16.6130552,46.9841 C16.7840552,46.9621 16.8360552,47.0131 16.8450552,47.1921 C16.8500552,47.3001 16.8470552,47.4091 16.8470552,47.5171 L16.8470552,50.4441 C16.8470552,50.5881 16.8460552,50.7331 16.8500552,50.8771 C16.8520552,50.9481 16.8500552,51.0311 16.9200552,51.0711 C17.1640552,51.2111 17.3990552,51.3771 17.7260552,51.3911 L17.7260552,50.8281 L17.7260552,47.4141 C17.7260552,47.2871 17.7230552,47.1611 17.7290552,47.0341 C17.7370552,46.8701 17.7820552,46.8231 17.9550552,46.7871 C17.9910552,46.7801 18.0270552,46.7751 18.0620552,46.7701 C19.3310552,46.5871 20.5990552,46.4031 21.8670552,46.2201 C23.4750552,45.9891 25.0840552,45.7631 26.6910552,45.5291 C28.5490552,45.2581 30.4050552,44.9801 32.2620552,44.7081 C34.4770552,44.3851 36.6920552,44.0631 38.9070552,43.7461 C39.4490552,43.6681 39.4190552,43.6591 39.4190552,44.1791 L39.4190552,50.6281 L39.4190552,51.1931 Z M54.0260552,30.6381 C55.1890552,20.6331 50.1140552,9.7221 39.5540552,4.6011 C29.1700552,-0.4359 16.5420552,2.0131 8.75705518,11.0341 C6.27905518,13.9051 4.51305518,17.1701 3.47405518,20.8181 C2.43505518,24.4671 2.22705518,28.1721 2.80005518,31.9211 C3.08405518,33.7761 3.85105518,36.5151 4.26105518,37.1241 C4.68205518,36.6971 5.10005518,36.2751 5.51505518,35.8511 C5.93105518,35.4241 6.34305518,34.9941 6.75805518,34.5661 C7.18605518,34.1261 7.60905518,33.6801 8.04505518,33.2481 C8.46605518,32.8321 8.83805518,32.3661 9.31405518,31.9921 C9.44505518,32.0941 9.56005518,32.1791 9.67005518,32.2711 C11.0700552,33.4401 12.4690552,34.6111 13.8690552,35.7801 C15.5730552,37.2041 17.2780552,38.6281 18.9830552,40.0521 C19.0940552,40.1441 19.2050552,40.2361 19.3190552,40.3251 C19.3800552,40.3721 19.4720552,40.3351 19.4750552,40.2621 C19.4820552,40.1181 19.4860552,39.9731 19.4860552,39.8291 L19.4860552,28.0171 C19.4860552,27.8911 19.4890552,27.7641 19.4840552,27.6381 C19.4780552,27.4891 19.4290552,27.4431 19.2920552,27.4481 C19.2200552,27.4511 19.1470552,27.4551 19.0760552,27.4671 C18.6690552,27.5351 18.6530552,27.4781 18.6570552,27.0791 C18.6580552,27.0431 18.6570552,27.0071 18.6570552,26.9711 C18.6570552,24.9481 18.6570552,22.9261 18.6580552,20.9031 C18.6580552,20.7941 18.6610552,20.6861 18.6610552,20.5781 C18.6610552,20.4471 18.7340552,20.3821 18.8530552,20.3571 C18.9240552,20.3421 18.9950552,20.3291 19.0660552,20.3191 C20.7980552,20.0671 22.5300552,19.8151 24.2620552,19.5641 C26.7450552,19.2031 29.2260552,18.8411 31.7090552,18.4821 C33.8700552,18.1701 36.0320552,17.8661 38.1920552,17.5471 C38.5260552,17.4981 38.5570552,17.5141 38.5520552,17.8641 C38.5510552,17.9181 38.5520552,17.9731 38.5520552,18.0271 C38.5520552,20.0681 38.5520552,22.1091 38.5510552,24.1491 C38.5510552,24.2581 38.5480552,24.3661 38.5470552,24.4741 C38.5450552,24.5801 38.4910552,24.6391 38.3880552,24.6551 C38.1390552,24.6941 37.8890552,24.7321 37.6400552,24.7731 C37.5400552,24.7891 37.4750552,24.8481 37.4690552,24.9491 C37.4610552,25.0751 37.4620552,25.2021 37.4620552,25.3281 C37.4570552,28.1271 37.4520552,30.9271 37.4480552,33.7261 C37.4460552,35.0451 37.4430552,36.3631 37.4470552,37.6811 C37.4470552,37.7731 37.3840552,37.9081 37.5630552,37.9471 C37.7320552,37.7691 37.9090552,37.5891 38.0800552,37.4031 C39.3520552,36.0221 40.6220552,34.6391 41.8930552,33.2571 C43.9230552,31.0511 45.9510552,28.8441 47.9830552,26.6411 C48.2970552,26.3001 48.2390552,26.2571 48.6690552,26.5841 C50.3070552,27.8311 51.9470552,29.0751 53.5870552,30.3191 C53.7140552,30.4151 53.8440552,30.5061 54.0260552,30.6381 L54.0260552,30.6381 Z M30.6280552,0.1491 C33.6760552,0.3991 36.6030552,1.1321 39.4080552,2.3491 C47.4260552,5.8291 53.3780552,12.9211 55.4230552,21.4431 C55.8160552,23.0781 56.0420552,24.7391 56.1360552,26.4211 C56.2080552,27.6871 56.1890552,28.9501 56.0810552,30.2091 C55.7380552,34.2411 54.6090552,38.0451 52.5790552,41.5501 C48.6530552,48.3301 42.8960552,52.7671 35.3330552,54.8341 C33.6940552,55.2821 32.0190552,55.5511 30.3190552,55.6451 C30.1400552,55.6401 29.9610552,55.6241 29.7840552,55.6321 C28.8340552,55.6761 27.8850552,55.6781 26.9360552,55.6331 C26.7580552,55.6251 26.5790552,55.6421 26.4010552,55.6471 C24.8470552,55.5671 23.3130552,55.3271 21.8070552,54.9481 C15.1000552,53.2621 9.70405518,49.6151 5.67205518,44.0021 C2.57505518,39.6901 0.88905518,34.8561 0.56805518,29.5511 C0.63005518,29.2271 0.64005518,28.9141 0.39505518,28.6491 L0.39505518,26.5891 C0.60005518,26.3711 0.57605518,26.0901 0.59305518,25.8261 C0.69005518,24.2911 0.93505518,22.7781 1.30205518,21.2871 C3.50505518,12.3381 9.99205518,5.0431 18.6180552,1.8091 C21.0300552,0.9041 23.5220552,0.3541 26.0910552,0.1461 C26.4970552,0.1871 26.9020552,0.1431 27.3070552,0.1191 C27.3710552,0.1151 27.4310552,0.0631 27.4940552,0.0331 L29.1190552,0.0331 C29.1830552,0.0611 29.2440552,0.1111 29.3090552,0.1151 C29.7480552,0.1441 30.1870552,0.1831 30.6280552,0.1491 L30.6280552,0.1491 Z" id="Fill-9" fill="#840028"></path>
                <path d="M26.4095552,55.7473 C26.4245552,55.7123 26.4215552,55.6793 26.4015552,55.6473 C26.5795552,55.6423 26.7585552,55.6253 26.9365552,55.6333 C27.8855552,55.6783 28.8345552,55.6763 29.7835552,55.6323 C29.9615552,55.6243 30.1405552,55.6403 30.3185552,55.6453 C30.2955552,55.6783 30.2935552,55.7123 30.3115552,55.7473 L26.4095552,55.7473 Z" id="Fill-11" fill="#840028"></path>
                <path d="M0.56785518,29.5514 C0.50985518,29.5394 0.45285518,29.5274 0.39485518,29.5154 L0.39485518,28.6484 C0.63985518,28.9144 0.62985518,29.2274 0.56785518,29.5514" id="Fill-13" fill="#840028"></path>
                <path d="M40.2822552,16.2834 C32.4162552,17.4734 24.6122552,18.6014 16.8102552,19.7534 C16.7052552,19.7694 16.5972552,19.7694 16.4952552,19.7764 C16.3982552,19.6074 16.5382552,19.5324 16.6042552,19.4454 C17.7122552,17.9744 18.8262552,16.5064 19.9382552,15.0384 C21.6952552,12.7214 23.4572552,10.4084 25.2022552,8.0824 C25.4182552,7.7944 25.6592552,7.6704 26.0042552,7.6234 C27.4342552,7.4294 28.8622552,7.2144 30.2902552,7.0024 C30.9972552,6.8964 30.9962552,6.8914 31.5132552,7.4074 C34.2972552,10.1924 37.0822552,12.9764 39.8652552,15.7624 C40.0002552,15.8984 40.1702552,16.0104 40.2822552,16.2834" id="Fill-15" fill="#840028"></path>
                <path d="M39.4331552,18.7761 C39.6241552,18.8181 39.6431552,18.9401 39.6941552,19.0271 C40.9601552,21.2331 42.2241552,23.4411 43.4901552,25.6471 C43.6091552,25.8541 43.6881552,26.0611 43.6861923,26.3091 C43.6761552,27.4101 43.6761552,28.5111 43.6841552,29.6121 C43.6861923,29.8811 43.6011552,30.0861 43.4161552,30.2861 C41.8211552,32.0061 40.2351552,33.7361 38.6441552,35.4601 C38.5751552,35.5361 38.5201552,35.6371 38.4021552,35.6531 C38.3071552,35.6191 38.3311552,35.5371 38.3311552,35.4721 C38.3311552,32.2951 38.3341552,29.1181 38.3371552,25.9411 C38.3371552,25.8871 38.3361552,25.8321 38.3391552,25.7781 C38.3511552,25.6141 38.3941552,25.5641 38.5691552,25.5351 C38.7821552,25.4991 38.9971552,25.4721 39.2111552,25.4411 C39.3521552,25.4201 39.4401552,25.3561 39.4331552,25.1961 C39.4271552,25.0521 39.4331552,24.9071 39.4331552,24.7631 L39.4331552,19.3471 L39.4331552,18.7761 Z" id="Fill-17" fill="#840028"></path>
                <path d="M32.9683552,7.5954 C32.5153552,7.1434 32.1463552,6.7754 31.7773552,6.4074 C31.2973552,5.9284 31.2983552,5.9374 30.6483552,6.0344 C29.2383552,6.2444 27.8273552,6.4454 26.4173552,6.6514 C26.0423552,6.7054 25.6683552,6.7644 25.2933552,6.8204 C25.1933552,6.8344 25.1133552,6.7964 25.0743552,6.7024 C24.8743552,6.2194 24.6733552,5.7364 24.4803552,5.2504 C24.4373552,5.1444 24.5113552,5.0794 24.6113552,5.0644 C24.9323552,5.0154 25.2543552,4.9724 25.5763552,4.9294 C27.4533552,4.6784 29.3313552,4.4274 31.2083552,4.1764 C31.2443552,4.1714 31.2803552,4.1674 31.3163552,4.1644 C31.9413552,4.1134 31.7833552,4.0644 32.1983552,4.4984 C32.5343552,4.8504 32.8663552,5.2074 33.1993552,5.5634 C33.2753552,5.6444 33.3373552,5.7304 33.3123552,5.8524 C33.2043552,6.3964 33.0973552,6.9394 32.9683552,7.5954" id="Fill-19" fill="#840028"></path>
                <path d="M39.8309552,17.3456 C39.8429552,17.3346 39.8549552,17.3156 39.8679552,17.3136 C40.1689552,17.2726 40.4709552,17.2326 40.7719552,17.1916 C41.0109552,17.4006 41.0919552,17.7056 41.2279552,17.9736 C42.3639552,20.2246 43.4909552,22.4816 44.6199552,24.7366 C44.6679552,24.8326 44.7109552,24.9316 44.7499552,25.0326 C44.7699552,25.0876 44.7429552,25.1396 44.6949552,25.1676 C44.6329552,25.2036 44.5649552,25.2316 44.4979552,25.2586 C44.4049552,25.2956 44.3209552,25.2806 44.2639552,25.1926 C44.1959552,25.0866 44.1309552,24.9786 44.0679552,24.8696 C42.7069552,22.4926 41.3449552,20.1166 39.9869552,17.7376 C39.9189552,17.6186 39.8009552,17.5116 39.8309552,17.3456" id="Fill-21" fill="#840028"></path>
                <path d="M17.7653552,22.8119 C17.3523552,22.3849 16.6273552,21.1409 16.4733552,20.7589 C16.5353552,20.6829 16.6263552,20.6699 16.7143552,20.6569 C16.9803552,20.6159 17.2463552,20.5769 17.5133552,20.5409 C17.6923552,20.5169 17.7623552,20.5619 17.7633552,20.7219 C17.7673552,21.4179 17.7653552,22.1149 17.7653552,22.8119" id="Fill-23" fill="#840028"></path>
                <path d="M48.5162552,31.2607 C48.9492552,31.2747 49.2812552,31.3517 49.5872552,31.5157 C50.3212552,31.9077 50.6592552,32.7297 50.4052552,33.5427 C50.1232552,34.4417 49.4842552,34.9797 48.6022552,35.2467 C48.1812552,35.3737 47.7542552,35.3827 47.3242552,35.2607 C46.3402552,34.9837 45.8102552,34.0507 46.1112552,33.0737 C46.3882552,32.1727 47.0282552,31.6347 47.9112552,31.3697 C48.1332552,31.3027 48.3642552,31.2487 48.5162552,31.2607" id="Fill-25" fill="#840028"></path>
                <path d="M8.84375518,40.6902307 C8.24375518,40.6932 7.75475518,40.4762 7.42075518,39.9622 C7.15675518,39.5562 7.14775518,39.1052 7.25175518,38.6572 C7.50675518,37.5582 8.64575518,36.7182 9.78175518,36.7702 C10.7787552,36.8162 11.4327552,37.6262 11.2717552,38.6122 C11.0837552,39.7622 10.0087552,40.6822 8.84375518,40.6902307" id="Fill-27" fill="#840028"></path>
                <path d="M56.3007552,27.931 C56.3007552,43.357 43.7957552,55.862 28.3697552,55.862 C12.9437552,55.862 0.43875518,43.357 0.43875518,27.931 C0.43875518,12.505 12.9437552,0 28.3697552,0 C43.7957552,0 56.3007552,12.505 56.3007552,27.931 Z" id="Stroke-29"></path>
            </g>
        </g>
    </g>
</svg>